<svg xmlns="http://www.w3.org/2000/svg" width="200" height="200" viewBox="0 0 200 200"><rect width="100%" height="100%" fill="#DDDDDD"/><path fill="#999999" d="m52.59 106.855-1.21-3.83h-6.24l-1.21 3.83h-3.6l6.12-17.77h3.65l6.09 17.77zm-4.36-13.61-2.21 6.98h4.48l-2.2-6.98zm8.78 7.37v-.25q0-3.13 1.34-5.05 1.35-1.91 3.81-1.91.99 0 1.78.43.79.42 1.39 1.22v-7.24h3.58v19.04h-3.07l-.29-1.61q-.62.91-1.47 1.39t-1.95.48q-2.43 0-3.78-1.79-1.34-1.78-1.34-4.71m3.55-.25v.25q0 1.74.58 2.73.59 1 1.91 1 .77 0 1.34-.32.58-.31.94-.91v-5.62q-.36-.63-.93-.97-.57-.35-1.33-.35-1.3 0-1.91 1.16-.6 1.16-.6 3.03m10.56.25v-.25q0-3.13 1.35-5.05 1.35-1.91 3.8-1.91.99 0 1.78.43.79.42 1.39 1.22v-7.24h3.58v19.04h-3.06l-.3-1.61q-.62.91-1.47 1.39t-1.95.48q-2.42 0-3.77-1.79-1.35-1.78-1.35-4.71m3.55-.25v.25q0 1.74.59 2.73.58 1 1.9 1 .77 0 1.34-.32.58-.31.94-.91v-5.62q-.36-.63-.93-.97-.57-.35-1.33-.35-1.3 0-1.91 1.16-.6 1.16-.6 3.03m21.41-11.28v17.77h-3.56v-17.77zm3.26 4.56h3.31l.14 1.75q.64-.95 1.6-1.47t2.21-.52q1.27 0 2.18.56.9.56 1.36 1.7.61-1.07 1.59-1.66.98-.6 2.3-.6 1.95 0 3.08 1.35t1.13 4.1v8h-3.57v-8.01q0-1.5-.49-2.09-.48-.58-1.45-.58-.76 0-1.31.33-.56.34-.89.94 0 .23.02.4.01.16.01.33v8.68h-3.55v-8.01q0-1.46-.49-2.07-.49-.6-1.47-.6-.72 0-1.26.27-.54.28-.9.78v9.63h-3.55zm32.95 13.21h-3.57q-.19-.45-.33-.95t-.2-1.03q-.55.97-1.45 1.6-.9.64-2.14.64-2.08 0-3.2-1.07t-1.12-2.91q0-1.94 1.49-3.01 1.5-1.07 4.36-1.07h1.99v-1.05q0-.95-.5-1.48-.5-.52-1.47-.52-.87 0-1.34.42t-.47 1.16l-3.44-.01-.01-.07q-.09-1.67 1.45-2.89 1.54-1.21 4.04-1.21 2.37 0 3.84 1.2 1.48 1.2 1.48 3.42v5.46q0 .93.14 1.75.14.81.45 1.62m-6.83-2.38q.94 0 1.68-.46.73-.47.98-1.08v-1.87h-1.99q-1.13 0-1.72.57-.58.57-.58 1.37 0 .66.44 1.07.44.4 1.19.4m8.39-3.86v-.25q0-3.13 1.36-5.05 1.36-1.91 3.82-1.91 1.11 0 1.95.5t1.44 1.43l.28-1.69h3.08v13.15q0 2.57-1.7 3.98-1.69 1.41-4.7 1.41-1 0-2.12-.27-1.13-.27-2.08-.75l.66-2.66q.82.39 1.67.59.84.2 1.84.2 1.47 0 2.16-.61t.69-1.9v-1.2q-.59.75-1.38 1.14t-1.82.39q-2.43 0-3.79-1.79t-1.36-4.71m3.56-.25v.25q0 1.74.59 2.73.59 1 1.9 1 .82 0 1.39-.3t.91-.88v-5.73q-.34-.6-.91-.93t-1.36-.33q-1.31 0-1.91 1.16-.61 1.16-.61 3.03m16.95 6.75q-2.86 0-4.57-1.83-1.71-1.84-1.71-4.66v-.48q0-2.95 1.62-4.85t4.34-1.89q2.67 0 4.15 1.61t1.48 4.36v1.94h-7.89l-.02.07q.09 1.31.87 2.15t2.11.84q1.18 0 1.96-.24.78-.23 1.71-.75l.96 2.2q-.8.66-2.11 1.09-1.3.44-2.9.44m-.32-10.97q-.99 0-1.56.76-.58.76-.71 1.99l.04.06h4.37v-.32q0-1.13-.54-1.81-.53-.68-1.6-.68"/></svg>